<svg width="576" height="572" viewBox="0 0 576 572" fill="none" xmlns="http://www.w3.org/2000/svg">
<path d="M365.5 470.5C374.5 504 435.748 552.928 518 488.536" stroke="#4CEC79" stroke-width="30"/>
<path fill-rule="evenodd" clip-rule="evenodd" d="M288.5 510C415.249 510 518 407.249 518 280.5C518 153.751 415.249 51 288.5 51C161.751 51 59 153.751 59 280.5C59 407.249 161.751 510 288.5 510ZM288.5 470.374C393.365 470.374 478.374 385.365 478.374 280.5C478.374 175.636 393.365 90.626 288.5 90.626C183.636 90.626 98.626 175.636 98.626 280.5C98.626 385.365 183.636 470.374 288.5 470.374Z" fill="#4CEC79"/>
<path fill-rule="evenodd" clip-rule="evenodd" d="M288.5 440.655C376.951 440.655 448.655 368.951 448.655 280.5C448.655 192.049 376.951 120.345 288.5 120.345C200.049 120.345 128.345 192.049 128.345 280.5C128.345 368.951 200.049 440.655 288.5 440.655ZM235.146 273.02C245.957 282.874 263.177 291.197 286.807 297.99C305.654 303.443 318.664 308.991 325.839 314.636C333.015 320.185 336.602 328.077 336.602 338.314C336.602 348.55 332.728 356.634 324.978 362.566C317.229 368.497 306.084 371.463 291.542 371.463C275.949 371.463 263.464 367.827 254.088 360.557C244.809 353.19 240.169 343.193 240.169 330.565H212.473C212.473 342.714 215.821 353.573 222.518 363.14C229.31 372.706 238.925 380.264 251.362 385.813C263.799 391.266 277.192 393.992 291.542 393.992C313.642 393.992 331.293 388.922 344.495 378.781C357.697 368.545 364.298 354.96 364.298 338.027C364.298 327.408 361.906 318.176 357.123 310.331C352.435 302.486 345.164 295.646 335.311 289.81C325.552 283.879 311.968 278.473 294.556 273.594C277.24 268.715 264.947 263.358 257.676 257.522C250.501 251.591 246.913 244.368 246.913 235.853C246.913 225.234 250.692 216.959 258.25 211.027C265.903 205 276.523 201.987 290.107 201.987C304.745 201.987 316.081 205.622 324.117 212.893C332.154 220.068 336.172 229.97 336.172 242.598H363.867C363.867 231.022 360.758 220.355 354.54 210.597C348.417 200.839 339.711 193.185 328.423 187.637C317.229 182.088 304.458 179.313 290.107 179.313C269.061 179.313 251.936 184.719 238.734 195.529C225.627 206.244 219.074 219.829 219.074 236.284C219.074 250.825 224.431 263.071 235.146 273.02Z" fill="#4CEC79"/>
</svg>
